HIERARCHY
ROOT ui
{
	 OFFSET 0 0 0
	 CHANNELS 3 XPosition YPosition Z Position
	 EndSite
	 {
	 OFFSET 0 -1 0
	 }
}
ROOT li
{
	 OFFSET 0 0 0
	 CHANNELS 3 XPosition YPosition Z Position
	 EndSite
	 {
	 OFFSET 0 -1 0
	 }
}
ROOT ul
{
	 OFFSET 0 0 0
	 CHANNELS 3 XPosition YPosition Z Position
	 EndSite
	 {
	 OFFSET 0 -1 0
	 }
}
ROOT ll
{
	 OFFSET 0 0 0
	 CHANNELS 3 XPosition YPosition Z Position
	 EndSite
	 {
	 OFFSET 0 -1 0
	 }
}
ROOT tt
{
	 OFFSET 0 0 0
	 CHANNELS 3 XPosition YPosition Z Position
	 EndSite
	 {
	 OFFSET 0 -1 0
	 }
}
ROOT tb
{
	 OFFSET 0 0 0
	 CHANNELS 3 XPosition YPosition Z Position
	 EndSite
	 {
	 OFFSET 0 -1 0
	 }
}
ROOT td
{
	 OFFSET 0 0 0
	 CHANNELS 3 XPosition YPosition Z Position
	 EndSite
	 {
	 OFFSET 0 -1 0
	 }
}
ROOT v
{
	 OFFSET 0 0 0
	 CHANNELS 3 XPosition YPosition Z Position
	 EndSite
	 {
	 OFFSET 0 -1 0
	 }
}
ROOT bn
{
	 OFFSET 0 0 0
	 CHANNELS 3 XPosition YPosition Z Position
	 EndSite
	 {
	 OFFSET 0 -1 0
	 }
}
MOTION
Frames: 24
Frame Time: 0.002
0.0025182909965515135	-5.842399969696999E-5	0		0.5081774291992187	-2.5175859375	0		-1.1152586669921876	-0.023884227752685547	0		-0.7505740966796876	-2.67739404296875	0		1.705687744140625	-0.704066162109375	0		3.18002197265625	-0.14982928466796874	0		4.56742333984375	-0.053819114685058594	0		5.75668896484375	0.130497802734375	0		-0.10936400604248046	5.923748046875	0		
0.029570119857788086	0.0021013100147247313	0		0.4843869934082031	-2.510313232421875	0		-1.1050294189453125	-0.013385390281677246	0		-0.818242431640625	-2.664201416015625	0		1.7129337158203124	-0.6934359130859375	0		3.231985107421875	-0.15213386535644532	0		4.56952587890625	-0.04901193618774414	0		5.7640234375	0.14622242736816407	0		-0.11053183746337891	5.92251123046875	0		
0.0016206640005111694	0.002451771974563599	0		0.5265908203125	-2.506463623046875	0		-1.0361090087890625	-0.020155263900756837	0		-0.7600817260742188	-2.662728515625	0		1.7489432373046876	-0.696425048828125	0		3.19734326171875	-0.1375569305419922	0		4.56174560546875	-0.0409835205078125	0		5.762064453125	0.14615254211425782	0		-0.11361092376708984	5.923318359375	0		
0.025730157852172853	0.0016835839748382568	0		0.50455859375	-2.516224609375	0		-1.057923583984375	-0.016958564758300782	0		-0.7541812133789062	-2.676125	0		1.7350791015625	-0.6963300170898438	0		3.197181640625	-0.15072425842285156	0		4.56673095703125	-0.047225933074951175	0		5.75600439453125	0.13817794799804686	0		-0.13085650634765625	5.91343359375	0		
-0.005124385833740234	-8.928030133247375E-4	0		0.5277124633789062	-2.521951171875	0		-1.0597198486328125	-0.01718766784667969	0		-0.7707986450195312	-2.6710244140625	0		1.73330029296875	-0.6964880981445313	0		3.18934716796875	-0.15271549987792968	0		4.55665771484375	-0.06013673782348633	0		5.74420654296875	0.13833743286132813	0		-0.13280348205566406	5.91322802734375	0		
0.022238304138183593	0.0012873899936676025	0		0.4752652282714844	-2.513037841796875	0		-1.124593505859375	-0.025052749633789062	0		-0.7703834228515625	-2.66928271484375	0		1.74053466796875	-0.7008319702148438	0		3.218412109375	-0.1644939727783203	0		4.553265625	-0.046176509857177736	0		5.73770263671875	0.14739349365234375	0		-0.1336705322265625	5.9120078125	0		
0.02065543556213379	0.001100937008857727	0		0.49967510986328123	-2.516770751953125	0		-1.1180272216796876	-0.018441514968872072	0		-0.758009765625	-2.674788818359375	0		1.6982581787109374	-0.687097412109375	0		3.177315185546875	-0.14174583435058594	0		4.54168603515625	-0.04603421020507813	0		5.7361162109375	0.1473507537841797	0		-0.12116893005371093	5.92251416015625	0		
0.01919194221496582	9.237980246543884E-4	0		0.47438671875	-2.51142236328125	0		-1.0445289306640626	-0.021255935668945312	0		-0.7702114868164063	-2.665751220703125	0		1.7406083984375	-0.6971751708984375	0		3.1974638671875	-0.16031283569335938	0		4.54609375	-0.0522269172668457	0		5.7346494140625	0.14731494140625	0		-0.13798997497558593	5.91265771484375	0		
0.008873796463012696	0.0019495079517364501	0		0.5131180419921875	-2.511435791015625	0		-1.0540181884765625	-0.028275537490844726	0		-0.7735310668945312	-2.667893798828125	0		1.692401611328125	-0.6912943115234375	0		3.2033603515625	-0.1495555419921875	0		4.53992578125	-0.04417911529541016	0		5.72913330078125	0.1393737335205078	0		-0.13947453308105467	5.91248681640625	0		
-0.009364944458007812	0.0011572580337524414	0		0.49378878784179686	-2.519193115234375	0		-1.0670218505859375	-0.01820236396789551	0		-0.7777744140625	-2.672003662109375	0		1.7260816650390625	-0.6971593627929688	0		3.19490869140625	-0.1604844512939453	0		4.543533203125	-0.05233419036865234	0		5.7279091796875	0.13935183715820312	0		-0.14083480834960938	5.9123271484375	0		
0.011461758613586425	-0.002458441972732544	0		0.49274224853515625	-2.51932763671875	0		-1.1313035888671874	-0.026022905349731444	0		-0.8008980102539063	-2.675695556640625	0		1.6959573974609374	-0.6986448974609375	0		3.190873291015625	-0.15749365234375	0		4.544130859375	-0.06641565704345703	0		5.7268017578125	0.1393369903564453	0		-0.12686345672607421	5.92185498046875	0		
-0.011459902763366699	8.766810297966003E-4	0		0.47100421142578125	-2.51000439453125	0		-1.1200616455078125	-0.015441315650939941	0		-0.761774658203125	-2.673703125	0		1.738100341796875	-0.6936619262695313	0		3.22477099609375	-0.16330418395996094	0		4.5403984375	-0.05438824462890625	0		5.7399326171875	0.14502873229980467	0		-0.12604986572265625	5.91867578125	0		
0.01671588134765625	0.0031336219310760497	0		0.49710601806640625	-2.513693115234375	0		-1.12094287109375	-0.015588390350341796	0		-0.7975271606445312	-2.67009619140625	0		1.73236279296875	-0.687642578125	0		3.197240478515625	-0.14678582763671874	0		4.54638818359375	-0.060562469482421874	0		5.72909326171875	0.14724114990234374	0		-0.14420343017578124	5.91191455078125	0		
-0.013118339538574218	6.412240266799927E-4	0		0.48249053955078125	-2.50849755859375	0		-1.064881591796875	-0.023937007904052735	0		-0.7422833251953125	-2.672418212890625	0		1.7285367431640626	-0.690654296875	0		3.170323486328125	-0.15327613830566406	0		4.52665966796875	-0.05817646408081055	0		5.7193154296875	0.1474385986328125	0		-0.14510130310058594	5.9117998046875	0		
0.012199037551879883	-1.37320002540946E-5	0		0.4896265869140625	-2.5197568359375	0		-1.14641162109375	-0.016334306716918944	0		-0.779878173828125	-2.670745361328125	0		1.7247889404296874	-0.6946565551757813	0		3.190474609375	-0.1617606658935547	0		4.5328544921875	-0.06433672332763672	0		5.71929443359375	0.13143170166015625	0		-0.16010319519042968	5.90199658203125	0		
-0.017439783096313475	-0.0024858949184417725	0		0.4911338195800781	-2.517881103515625	0		-1.066138916015625	-0.024168643951416015	0		-0.7696043701171875	-2.680082275390625	0		1.7273048095703125	-0.6907797241210938	0		3.183854736328125	-0.16366380310058593	0		4.530232421875	-0.06630016326904296	0		5.71960400390625	0.12642704010009764	0		-0.14658425903320313	5.91160302734375	0		
0.0062341270446777345	0.004921074867248535	0		0.49272927856445314	-2.515995849609375	0		-1.1275517578125	-0.019971185684204102	0		-0.837820068359375	-2.668732421875	0		1.72988916015625	-0.6878943481445312	0		3.193513427734375	-0.15690261840820313	0		4.5249140625	-0.058196533203125	0		5.71911083984375	0.12644702911376954	0		-0.147178955078125	5.91152001953125	0		
0.010722530364990235	-2.5521901249885557E-4	0		0.4923673400878906	-2.516058837890625	0		-1.061140625	-0.029483388900756836	0		-0.767322998046875	-2.6763251953125	0		1.72949658203125	-0.6879365844726563	0		3.18707080078125	-0.15879238891601563	0		4.5245107421875	-0.05819193649291992	0		5.71870458984375	0.1264716567993164	0		-0.14768220520019532	5.9114462890625	0		
0.010400639533996583	-3.180499970912933E-4	0		0.4900440368652344	-2.518071044921875	0		-1.1364239501953124	-0.026971118927001953	0		-0.7686439208984375	-2.67837890625	0		1.726122802734375	-0.6909072875976563	0		3.218722900390625	-0.1604832305908203	0		4.52178662109375	-0.0771351318359375	0		5.70844677734375	0.12971266174316406	0		-0.14809954833984376	5.911380859375	0		
0.006091869831085205	-0.0032881870269775393	0		0.5049191589355468	-2.5144384765625	0		-1.0676002197265626	-0.024509891510009766	0		-0.7945661010742188	-2.66489794921875	0		1.7258876953125	-0.69093603515625	0		3.17053271484375	-0.15747035217285157	0		4.516712890625	-0.06901554107666015	0		5.7139638671875	0.11862178802490235	0		-0.14939591979980468	5.91334326171875	0		
-0.019080785751342772	-0.0028076000213623047	0		0.46170477294921874	-2.5175673828125	0		-1.136847412109375	-0.027112133026123048	0		-0.7710264282226562	-2.680465576171875	0		1.7257200927734375	-0.690958740234375	0		3.1921611328125	-0.16693511962890625	0		4.52136474609375	-0.07709912872314453	0		5.70797607421875	0.12778623962402344	0		-0.13350016784667967	5.9209501953125	0		
0.009857132911682128	-4.6676701307296755E-4	0		0.49370236206054685	-2.514282958984375	0		-1.1288197021484374	-0.02034465217590332	0		-0.768019775390625	-2.676585693359375	0		1.6986600341796876	-0.6884039916992187	0		3.215060546875	-0.16641668701171874	0		4.517501953125	-0.06499038696289063	0		5.7178310546875	0.12661974334716797	0		-0.13273297119140626	5.9198837890625	0		
-0.01212098503112793	0.003960475921630859	0		0.483866943359375	-2.505103271484375	0		-1.132970947265625	-0.024314620971679687	0		-0.776810546875	-2.665447509765625	0		1.7307017822265625	-0.68409375	0		3.2033369140625	-0.1501534881591797	0		4.5163505859375	-0.06893511962890625	0		5.71776171875	0.12667180633544922	0		-0.1348509826660156	5.9218857421875	0		
0.009766147613525391	-5.360649824142456E-4	0		0.5057304077148438	-2.51259130859375	0		-1.0738800048828125	-0.019613981246948242	0		-0.780875244140625	-2.669406005859375	0		1.728605224609375	-0.6880548706054688	0		3.1890439453125	-0.16283535766601562	0		4.51632861328125	-0.06889525604248047	0		5.70359130859375	0.12002849578857422	0		-0.1491977844238281	5.911150390625	0		
